<?xml version="1.0" encoding="iso-8859-1"?>
<!-- Generator: Adobe Illustrator 19.0.0, SVG Export Plug-In . SVG Version: 6.00 Build 0)  -->
<svg version="1.1" id="Capa_1" xmlns="http://www.w3.org/2000/svg" xmlns:xlink="http://www.w3.org/1999/xlink" x="0px" y="0px"
	 viewBox="0 0 358.81 358.81" style="enable-background:new 0 0 358.81 358.81;" xml:space="preserve">
<g id="XMLID_1064_">
	<g id="XMLID_1065_">
		<rect id="XMLID_54_" x="73.376" style="fill:#F9E375;" width="127.059" height="117.059"/>
		<rect id="XMLID_1069_" x="136.905" style="fill:#F5D361;" width="63.529" height="117.059"/>
		<rect id="XMLID_48_" x="91.905" y="30" style="fill:#DEDEE1;" width="30" height="30"/>
		<rect id="XMLID_45_" x="151.905" y="30" style="fill:#BDBED0;" width="30" height="30"/>
	</g>
	<rect id="XMLID_41_" x="51.905" y="90" style="fill:#6DA8D6;" width="170" height="260"/>
	<rect id="XMLID_1075_" x="136.905" y="90" style="fill:#2F8CB7;" width="85" height="260"/>
	<g id="XMLID_1076_">
		<path id="XMLID_35_" style="fill:#F9E375;" d="M159.673,181.291c21.821,0,40.643-12.798,49.4-31.291h25.664
			c8.757,18.494,27.579,31.291,49.4,31.291c8.126,0,15.836-1.776,22.768-4.958v104.669c0,42.794-85,77.808-85,77.808
			s-85-35.014-85-77.808V176.333C143.837,179.515,151.547,181.291,159.673,181.291z"/>
		<path id="XMLID_32_" style="fill:#F5D361;" d="M159.673,181.291c21.821,0,40.643-12.798,49.4-31.291h12.832v208.81
			c0,0-85-35.014-85-77.808V176.333C143.837,179.515,151.547,181.291,159.673,181.291z"/>
	</g>
</g>
<g>
</g>
<g>
</g>
<g>
</g>
<g>
</g>
<g>
</g>
<g>
</g>
<g>
</g>
<g>
</g>
<g>
</g>
<g>
</g>
<g>
</g>
<g>
</g>
<g>
</g>
<g>
</g>
<g>
</g>
</svg>
