<?xml version="1.0" encoding="iso-8859-1"?>
<!-- Generator: Adobe Illustrator 19.0.0, SVG Export Plug-In . SVG Version: 6.00 Build 0)  -->
<svg version="1.1" id="Capa_1" xmlns="http://www.w3.org/2000/svg" xmlns:xlink="http://www.w3.org/1999/xlink" x="0px" y="0px"
	 viewBox="0 0 360.001 360.001" style="enable-background:new 0 0 360.001 360.001;" xml:space="preserve">
<g id="XMLID_940_">
	<rect id="XMLID_942_" x="130.001" y="150.001" style="fill:#A0815C;" width="50" height="40"/>
	<polygon id="XMLID_943_" style="fill:#A0815C;" points="100.001,300 100.001,244.999 100.001,190 100.001,150.001 70.001,150.001 
		70.001,189.999 70.001,329.999 70.001,330 180.001,330 180.001,300 	"/>
	<rect id="XMLID_944_" x="70.001" y="40" style="fill:#A0815C;" width="30" height="0.001"/>
	<rect id="XMLID_945_" x="275" y="25" style="fill:#786145;" width="0.001" height="30"/>
	<polygon id="XMLID_946_" style="fill:#786145;" points="290,150.001 260,150.001 260,190 260,244.999 260,300 180.001,300 
		180.001,330 290,330 290,329.999 290,189.999 	"/>
	<rect id="XMLID_947_" x="180.001" y="150.001" style="fill:#786145;" width="50" height="40"/>
	<polygon id="XMLID_948_" style="fill:#B39A7D;" points="100.001,150 100.001,40 70.001,40 70.001,150.001 100.001,150.001 	"/>
	<polygon id="XMLID_949_" style="fill:#B39A7D;" points="130.001,149.999 130.001,150 180.001,150 230.001,150 230.001,149.999 
		230.001,40 230.001,40 130.001,40 130.001,40 	"/>
	<polygon id="XMLID_950_" style="fill:#B39A7D;" points="260,150 260,150.001 290,150.001 290,40 260,40 	"/>
	<rect id="XMLID_951_" x="70.001" y="330.001" style="fill:#B39A7D;" width="220" height="30"/>
	<polygon id="XMLID_952_" style="fill:#B39A7D;" points="230.001,190 180.001,190 130.001,190 130.001,244.999 100.001,244.999 
		100.001,300 180.001,300 260,300 260,244.999 230.001,244.999 	"/>
	<polygon id="XMLID_953_" style="fill:#50412E;" points="100.001,150 130.001,150 130.001,149.999 130.001,40 130.001,40 
		100.001,40 100.001,40 	"/>
	<rect id="XMLID_954_" x="100.001" y="190" style="fill:#50412E;" width="30" height="54.999"/>
	<polygon id="XMLID_955_" style="fill:#50412E;" points="230.001,149.999 230.001,150 260,150 260,40 260,40 230.001,40 230.001,40 
			"/>
	<rect id="XMLID_956_" x="230.001" y="190" style="fill:#50412E;" width="30" height="54.999"/>
	<polygon id="XMLID_957_" style="fill:#A0815C;" points="130.001,39.999 130.001,0 100.001,0 100.001,39.999 100.001,40 130.001,40 
			"/>
	<polygon id="XMLID_958_" style="fill:#A0815C;" points="260,39.999 260,0 230.001,0 230.001,39.999 230.001,40 260,40 	"/>
	<rect id="XMLID_959_" x="40" y="189.999" style="fill:#50412E;" width="30" height="140"/>
	<rect id="XMLID_960_" x="290" y="189.999" style="fill:#50412E;" width="30" height="140"/>
	<polygon id="XMLID_961_" style="fill:#FF9811;" points="130.001,150.001 130.001,150 100.001,150 100.001,150.001 100.001,190 
		130.001,190 	"/>
	<polygon id="XMLID_962_" style="fill:#FF9811;" points="230.001,150 230.001,150.001 230.001,190 260,190 260,150.001 260,150 	"/>
</g>
<g>
</g>
<g>
</g>
<g>
</g>
<g>
</g>
<g>
</g>
<g>
</g>
<g>
</g>
<g>
</g>
<g>
</g>
<g>
</g>
<g>
</g>
<g>
</g>
<g>
</g>
<g>
</g>
<g>
</g>
</svg>
